<svg width="50.000000" height="26.352783" viewBox="0 0 50 26.3528" fill="none" xmlns="http://www.w3.org/2000/svg" xmlns:xlink="http://www.w3.org/1999/xlink">
	<desc>
			Created with Pixso.
	</desc>
	<defs/>
	<path id="Vector" d="M37.73 0.31C37.93 0.52 38.04 0.79 38.04 1.08L38.04 12.62C38.04 12.63 38.04 12.65 38.04 12.66C38.04 12.84 38 13.02 37.91 13.18C37.82 13.35 37.68 13.5 37.52 13.6C37.35 13.7 37.15 13.75 36.96 13.75C36.76 13.75 36.57 13.7 36.4 13.6C36.23 13.5 36.1 13.35 36 13.18C35.92 13.02 35.87 12.84 35.87 12.66C35.87 12.65 35.87 12.63 35.87 12.62L35.87 1.08C35.87 0.79 35.99 0.52 36.19 0.31C36.4 0.11 36.67 0 36.96 0C37.25 0 37.52 0.11 37.73 0.31ZM13.81 0.31C14.01 0.52 14.13 0.79 14.13 1.08L14.13 12.62C14.12 12.9 14 13.17 13.8 13.37C13.6 13.57 13.33 13.68 13.04 13.68C12.76 13.68 12.48 13.57 12.28 13.37C12.08 13.17 11.96 12.9 11.95 12.62L11.95 1.08C11.95 0.79 12.07 0.52 12.27 0.31C12.48 0.11 12.75 0 13.04 0C13.33 0 13.61 0.11 13.81 0.31ZM20.03 4.76C20.08 4.89 20.11 5.03 20.11 5.17L20.11 5.18L20.11 5.17L20.11 10.45C20.11 10.74 19.99 11.01 19.79 11.22C19.59 11.42 19.31 11.54 19.02 11.54C18.73 11.54 18.45 11.42 18.25 11.22C18.05 11.01 17.93 10.74 17.93 10.45L17.93 5.17C17.93 5.03 17.96 4.89 18.01 4.76C18.07 4.63 18.15 4.51 18.25 4.41C18.35 4.3 18.47 4.22 18.6 4.17C18.74 4.11 18.88 4.09 19.02 4.09C19.16 4.09 19.3 4.11 19.44 4.17C19.57 4.22 19.69 4.3 19.79 4.41C19.89 4.51 19.97 4.63 20.03 4.76ZM8.07 4.76C8.12 4.89 8.15 5.03 8.15 5.18L8.15 10.45C8.15 10.74 8.04 11.01 7.83 11.22C7.63 11.42 7.35 11.54 7.06 11.54C6.77 11.54 6.5 11.42 6.29 11.22C6.09 11.01 5.97 10.74 5.97 10.45L5.97 5.18C5.97 5.03 6 4.89 6.06 4.76C6.11 4.63 6.19 4.51 6.29 4.41C6.39 4.31 6.51 4.22 6.65 4.17C6.78 4.12 6.92 4.09 7.06 4.09C7.2 4.09 7.35 4.12 7.48 4.17C7.61 4.22 7.73 4.31 7.83 4.41C7.93 4.51 8.01 4.63 8.07 4.76ZM43.94 4.76C44 4.89 44.02 5.03 44.02 5.18L44.02 10.45C44.02 10.59 44 10.74 43.94 10.87C43.89 11 43.8 11.12 43.7 11.22C43.6 11.32 43.48 11.4 43.35 11.46C43.21 11.51 43.07 11.54 42.93 11.54C42.78 11.54 42.64 11.51 42.51 11.45C42.38 11.4 42.26 11.32 42.16 11.22C42.06 11.12 41.98 11 41.92 10.87C41.87 10.73 41.84 10.59 41.84 10.45L41.84 5.18C41.84 4.89 41.96 4.61 42.16 4.41C42.36 4.2 42.64 4.09 42.93 4.09C43.07 4.09 43.21 4.12 43.35 4.17C43.48 4.22 43.6 4.3 43.7 4.4C43.8 4.51 43.88 4.63 43.94 4.76ZM31.73 4.43C31.94 4.62 32.05 4.89 32.06 5.18L32.06 10.45C32.06 10.59 32.03 10.73 31.98 10.86C31.92 11 31.84 11.12 31.74 11.22C31.64 11.32 31.52 11.4 31.39 11.45C31.26 11.51 31.12 11.53 30.98 11.53C30.69 11.53 30.41 11.42 30.21 11.22C30.01 11.01 29.89 10.74 29.89 10.45L29.89 5.18C29.9 4.89 30.02 4.62 30.22 4.43C30.42 4.23 30.69 4.12 30.98 4.12C31.26 4.12 31.53 4.23 31.73 4.43ZM49.68 7.4C49.88 7.6 50 7.88 50 8.17L49.99 10.45L49.99 10.45C49.99 10.59 49.97 10.73 49.91 10.87C49.86 11 49.78 11.12 49.68 11.22C49.58 11.32 49.46 11.4 49.32 11.45C49.19 11.51 49.05 11.54 48.91 11.54C48.77 11.54 48.62 11.51 48.49 11.45C48.36 11.4 48.24 11.32 48.14 11.22C48.04 11.12 47.96 11 47.91 10.87C47.85 10.73 47.82 10.59 47.82 10.45L47.82 8.17C47.82 7.88 47.94 7.6 48.14 7.4C48.34 7.2 48.62 7.08 48.91 7.08C49.2 7.08 49.47 7.2 49.68 7.4ZM1.85 7.4C2.06 7.6 2.17 7.88 2.17 8.17L2.17 10.45C2.16 10.73 2.05 11 1.84 11.2C1.64 11.4 1.37 11.51 1.08 11.51C0.8 11.51 0.53 11.4 0.32 11.2C0.12 11 0 10.73 0 10.45L0 8.17C0 7.88 0.11 7.6 0.32 7.4C0.52 7.2 0.8 7.08 1.08 7.08C1.37 7.08 1.65 7.2 1.85 7.4ZM25.76 7.4C25.97 7.61 26.08 7.88 26.08 8.17L26.08 10.45C26.08 10.74 25.97 11.01 25.76 11.22C25.56 11.42 25.28 11.53 25 11.53C24.71 11.53 24.43 11.42 24.23 11.22C24.02 11.01 23.91 10.74 23.91 10.45L23.91 8.17C23.91 7.88 24.03 7.6 24.23 7.4C24.43 7.2 24.71 7.08 25 7.08C25.29 7.08 25.56 7.2 25.76 7.4ZM24.64 19.48C24.61 19.47 23.69 19.21 22.93 19.21C22.05 19.21 21.57 19.51 21.57 19.93C21.57 20.46 22.22 20.64 22.58 20.75L23.18 20.95C24.61 21.4 25.25 22.37 25.25 23.43C25.25 25.61 23.33 26.35 21.66 26.35C20.86 26.34 20.07 26.26 19.29 26.11L19.29 24.11C19.48 24.16 20.4 24.43 21.36 24.43C22.45 24.43 22.95 24.12 22.95 23.62C22.95 23.18 22.52 22.93 21.98 22.76C21.84 22.71 21.64 22.65 21.51 22.61C20.29 22.22 19.27 21.5 19.27 20.07C19.27 18.44 20.49 17.35 22.51 17.35C23.23 17.36 23.94 17.45 24.64 17.63L24.64 19.48ZM11.12 19.99C10.56 19.69 9.92 19.53 9.28 19.53C7.86 19.53 6.88 20.52 6.88 21.85C6.88 23.14 7.82 24.17 9.28 24.17C9.92 24.17 10.56 24.01 11.12 23.71L11.12 26.04C10.47 26.24 9.8 26.34 9.12 26.35C6.66 26.35 4.5 24.65 4.5 21.85C4.5 19.25 6.46 17.35 9.12 17.35C9.8 17.35 10.48 17.46 11.12 17.66L11.12 19.99ZM34.01 19.99C33.44 19.69 32.81 19.53 32.16 19.53C30.74 19.53 29.76 20.52 29.76 21.85C29.76 23.14 30.7 24.17 32.16 24.17C32.81 24.17 33.44 24.01 34.01 23.71L34.01 26.04C33.36 26.24 32.69 26.34 32.01 26.35C29.54 26.35 27.38 24.65 27.38 21.85C27.38 19.25 29.34 17.35 32.01 17.35C32.69 17.35 33.36 17.46 34.01 17.66L34.01 19.99ZM45.49 21.85C45.49 24.33 43.57 26.35 40.9 26.35C38.23 26.35 36.31 24.33 36.31 21.85C36.31 19.37 38.23 17.35 40.9 17.35C43.57 17.35 45.49 19.37 45.49 21.85ZM16.33 26.19L14.14 26.19L14.14 17.51L16.33 17.51L16.33 26.19ZM40.9 19.56C40.6 19.56 40.31 19.62 40.03 19.73C39.75 19.85 39.5 20.01 39.29 20.23C39.08 20.44 38.91 20.69 38.8 20.97C38.69 21.24 38.64 21.52 38.64 21.81C38.64 21.82 38.64 21.84 38.64 21.85C38.64 21.86 38.64 21.88 38.64 21.89C38.64 22.18 38.69 22.46 38.8 22.73C38.91 23 39.08 23.26 39.29 23.47C39.5 23.68 39.75 23.85 40.03 23.97C40.3 24.08 40.6 24.14 40.9 24.13C41.2 24.14 41.5 24.08 41.78 23.97C42.06 23.85 42.31 23.68 42.52 23.47C42.73 23.26 42.9 23 43.01 22.73C43.12 22.46 43.17 22.17 43.17 21.89Q43.17 21.87 43.17 21.85C43.17 21.84 43.17 21.82 43.17 21.81C43.17 21.52 43.12 21.24 43.01 20.97C42.9 20.69 42.73 20.44 42.52 20.23C42.31 20.01 42.06 19.85 41.78 19.73C41.5 19.62 41.2 19.56 40.9 19.56ZM48.74 25.18L48.35 25.18L48.35 26.19L48.19 26.19L48.19 25.19L47.8 25.19L47.8 25.05L48.74 25.05L48.74 25.18ZM49.07 25.05L49.41 25.99L49.42 25.99L49.75 25.05L49.99 25.05L49.99 26.19L49.83 26.19L49.83 25.25L49.83 25.25L49.48 26.19L49.33 26.19L48.99 25.25L48.98 25.25L48.98 26.19L48.82 26.19L48.82 25.05L49.07 25.05Z" fill="#666666" fill-opacity="1.000000" fill-rule="evenodd"/>
</svg>
