<svg width="47.999756" height="19.000000" viewBox="0 0 47.9998 19" fill="none" xmlns="http://www.w3.org/2000/svg" xmlns:xlink="http://www.w3.org/1999/xlink">
	<desc>
			Created with Pixso.
	</desc>
	<defs/>
	<path id="Union" d="M18.82 4C15.76 3.98 14.44 5.71 14.44 5.71L14.44 0L11.99 0L11.99 9.1C11.88 7.43 11.02 4 5.99 4C-0.01 4 -0.03 8.52 0 9.7C0 9.7 -0.3 15 6.05 15C11.51 15 11.78 11.67 11.78 11.67L9.27 11.68C9.27 11.68 8.78 13.51 6.06 13.46C2.57 13.39 2.44 10 2.44 10L11.99 10L11.99 15L14.31 15L14.41 13.26C14.41 13.26 15.52 15 18.77 15C21.48 15 23.72 13.67 24.42 11.17C24.1 14.09 26.91 15.01 29.12 15C31.39 14.98 32.68 14.33 33.64 13.17L33.74 15.01L35.99 15L35.99 8.19L35.99 8.06C35.93 6.83 35.8 4.21 30.72 4.01C30.72 4.01 25.83 3.6 25.17 7L27.76 7C27.89 6.58 28.44 5.53 30.55 5.56C33.03 5.61 33.48 6.56 33.47 8C33.47 8 31.34 8 30.63 8C29.42 8.01 25.38 8.31 24.57 10.51C24.61 10.22 24.64 9.91 24.65 9.58C24.71 6.06 21.88 4.01 18.82 4ZM37.24 4L34.43 4L40 14.53L37.85 19L40.57 19L47.99 4L45.46 4L41.34 12.18L37.24 4ZM2.52 8.51C2.52 8.51 2.69 5.55 6.14 5.55C9.58 5.54 9.58 8.51 9.58 8.51L2.52 8.51ZM18.26 13.43C14.4 13.47 14.46 9.54 14.46 9.54C14.46 9.54 14.32 5.67 18.25 5.57C22.19 5.47 22.13 9.62 22.13 9.62C22.13 9.62 22.12 13.38 18.26 13.43ZM29.54 13.51C29.54 13.51 27.08 13.51 26.94 11.64C26.79 9.64 30.72 9.56 30.72 9.56L33.5 9.56C33.49 9.56 33.94 13.56 29.54 13.51Z" fill="#666666" fill-opacity="1.000000" fill-rule="evenodd"/>
</svg>
